<svg width="56" height="56" viewBox="0 0 56 56" fill="none" xmlns="http://www.w3.org/2000/svg">
<rect width="56" height="56" rx="16" fill="#0C75F1"/>
<g clip-path="url(#clip0_3805_26345)">
<path d="M25 32.5V22H18.25C17.0073 22 16 23.0073 16 24.25V37.75C16 38.9927 17.0073 40 18.25 40H27.25C28.4927 40 29.5 38.9927 29.5 37.75V35.5H28C26.3453 35.5 25 34.1547 25 32.5ZM35.5 16V20.5H40L35.5 16Z" fill="white"/>
<path opacity="0.4" d="M40 20.5V31.75C40 32.9927 38.9927 34 37.75 34H28.75C27.5073 34 26.5 32.9927 26.5 31.75V18.25C26.5 17.0073 27.5073 16 28.75 16H35.5V20.5H40Z" fill="white"/>
</g>
<defs>
<clipPath id="clip0_3805_26345">
<rect width="24" height="24" fill="white" transform="translate(16 16)"/>
</clipPath>
</defs>
</svg>
