<svg width="56" height="56" viewBox="0 0 56 56" fill="none" xmlns="http://www.w3.org/2000/svg">
<rect width="56" height="56" rx="16" fill="#0C75F1"/>
<path d="M32.5 25C33.3259 25 34 24.3259 34 23.5C34 22.6741 33.3259 22 32.5 22C31.6741 22 31 22.6741 31 23.5C31 24.3259 31.675 25 32.5 25ZM32.5 31C31.6741 31 31 31.6741 31 32.5C31 33.3259 31.6741 34 32.5 34C33.3259 34 34 33.3259 34 32.5C34 31.6741 33.325 31 32.5 31ZM23.5 31C22.6741 31 22 31.6741 22 32.5C22 33.3259 22.6741 34 23.5 34C24.3259 34 25 33.3259 25 32.5C25 31.6741 24.325 31 23.5 31ZM23.5 22C22.675 22 22 22.675 22 23.5C22 24.325 22.6741 25 23.5 25C24.3259 25 25 24.3259 25 23.5C25 22.6741 24.325 22 23.5 22ZM28 26.5C27.175 26.5 26.5 27.175 26.5 28C26.5 28.825 27.1741 29.5 28 29.5C28.8259 29.5 29.5 28.8259 29.5 28C29.5 27.1741 28.825 26.5 28 26.5Z" fill="white"/>
<path opacity="0.4" d="M35.5 17.5H20.5C18.8416 17.5 17.5 18.8416 17.5 20.5V35.5C17.5 37.1584 18.8416 38.5 20.5 38.5H35.5C37.1584 38.5 38.5 37.1584 38.5 35.5V20.5C38.5 18.8416 37.1594 17.5 35.5 17.5ZM23.5 34C22.6741 34 22 33.3259 22 32.5C22 31.6741 22.6741 31 23.5 31C24.3259 31 25 31.6741 25 32.5C25 33.3259 24.325 34 23.5 34ZM23.5 25C22.675 25 22 24.325 22 23.5C22 22.675 22.6741 22 23.5 22C24.3259 22 25 22.6741 25 23.5C25 24.3259 24.325 25 23.5 25ZM28 29.5C27.175 29.5 26.5 28.825 26.5 28C26.5 27.175 27.1741 26.5 28 26.5C28.8259 26.5 29.5 27.1741 29.5 28C29.5 28.8259 28.825 29.5 28 29.5ZM32.5 34C31.6741 34 31 33.3259 31 32.5C31 31.6741 31.6741 31 32.5 31C33.3259 31 34 31.6741 34 32.5C34 33.3259 33.325 34 32.5 34ZM32.5 25C31.6741 25 31 24.3259 31 23.5C31 22.6741 31.6741 22 32.5 22C33.3259 22 34 22.6741 34 23.5C34 24.3259 33.325 25 32.5 25Z" fill="white"/>
</svg>
