<svg width="56" height="56" viewBox="0 0 56 56" fill="none" xmlns="http://www.w3.org/2000/svg">
<rect width="56" height="56" rx="16" fill="#0C75F1"/>
<g clip-path="url(#clip0_3805_26349)">
<path d="M37.3094 21.6907L42.5594 26.9407C43.1453 27.5266 43.1453 28.4735 42.5594 29.0594L37.3094 34.3094C36.7234 34.8954 35.7766 34.8954 35.1906 34.3094C34.6047 33.7235 34.6047 32.7766 35.1906 32.1907L39.3766 28L35.1906 23.8094C34.6047 23.2235 34.6047 22.2766 35.1906 21.6907C35.7766 21.1047 36.7234 21.1047 37.3094 21.6907ZM20.8094 23.8094L16.6211 28L20.8094 32.1907C21.3953 32.7766 21.3953 33.7235 20.8094 34.3094C20.2234 34.8954 19.2766 34.8954 18.6906 34.3094L13.4393 29.0594C12.8536 28.4735 12.8536 27.5266 13.4393 26.9407L18.6906 21.6907C19.2766 21.1047 20.2234 21.1047 20.8094 21.6907C21.3953 22.2766 21.3953 23.2235 20.8094 23.8094Z" fill="white"/>
<path opacity="0.4" d="M32.4436 17.912L26.4436 38.9125C26.214 39.7094 25.3843 40.1687 24.5874 39.9437C23.7905 39.7141 23.3311 38.8844 23.5561 38.0875L29.5561 17.088C29.7858 16.2914 30.6155 15.8301 31.4124 16.0577C32.2093 16.2853 32.6686 17.1156 32.4436 17.912Z" fill="white"/>
</g>
<defs>
<clipPath id="clip0_3805_26349">
<rect width="30" height="24" fill="white" transform="translate(13 16)"/>
</clipPath>
</defs>
</svg>
